<svg xmlns="http://www.w3.org/2000/svg" viewBox="0 0 710.93 645.28">
    <defs>
        <style>.cls-1{fill:#fff;}</style>
    </defs>
    <g id="Layer_2" data-name="Layer 2">
        <g id="Object">
            <path class="cls-1"
                d="M702.17,297.13c3.63-36-.5-74.67-24.67-97.85C633.22,108.75,530.4,51.48,436.42,23.9,324.21-9,200.19-1.74,106.33,74a248.24,248.24,0,0,0-72,95c-16,18.6-24.19,47.69-24.93,71.57a139.71,139.71,0,0,0-1,22.79,242.42,242.42,0,0,0,.31,51.57c2.83,25.06,10.11,50.62,21.88,73,7.53,14.28,17.25,33.08,31.63,42.48,26.12,38.95,64.31,69.09,107.4,88.09,5.82,4.81,12.39,10.92,10.78,17a16,16,0,0,0,1.42,12.12c-4.32,17.33-7.27,35.27-10.56,52.4a14.59,14.59,0,0,0,.17,5.88c-1.37,4.35-2.78,8.68-4.07,13.05-2.52,8.54,2.28,16.3,8.7,20,6.48-5,13.91-8.64,21.29-12.3q1.75-5.34,3.49-10.7a16.29,16.29,0,0,0,8.75-.32,125,125,0,0,0,63.08-46.42c.23.06.46.09.69.14a3.46,3.46,0,0,1,4.14-4.43c17.69,5,35.74,7.22,53.91,8.42a207.21,207.21,0,0,0,32.29-5.1c19.45.77,40-2.53,59-7.1a245.76,245.76,0,0,0,73.38-14.47c22.38-8.08,43.87-19.68,64.06-33.5a13.61,13.61,0,0,0,11.48-1.06c36.44-20.1,66.4-53.24,88.47-90.53C689.78,387,707.26,341.76,702.17,297.13Z" />
            <path
                d="M590.74,386.58,543,398.69A70.82,70.82,0,0,0,541,387.91a127.49,127.49,0,0,0,34.82-16.84c28.58-19.64,58.89-60.65,42-96.75C609.76,257,593.61,247.24,575,242A63.68,63.68,0,0,0,563,202.13c-16.49-23.3-43.31-36.77-71.41-41.44C479.8,131.33,449,113.85,418.27,109c-21.62-3.44-44.28-2.64-66-.53-15.84,1.54-35.46,8-40.29,24.59-21.05-9.31-45-11.21-66.78-1.05a63.91,63.91,0,0,0-20.15,14.92,89.17,89.17,0,0,0-20.92,10.6c-13.21,9.1-23.78,22.16-29.2,36.72a110.14,110.14,0,0,0-64.3,45.45,104.72,104.72,0,0,0-10.88,21.07,53.23,53.23,0,0,0-6.87,32.62,112.69,112.69,0,0,0,15.81,63.9c11.55,19.27,28.22,33.1,47.36,42.84,1.86,6.57,5.23,12.24,11,15.73,10,6.11,19.62,3.74,28.35-1.64a246,246,0,0,0,34.49,5.52,85.74,85.74,0,0,0,9,9.71c19,17.55,42.5,25,67,26.73a70.07,70.07,0,0,0,21.75,4.51,174.43,174.43,0,0,0,40.77-3.12c3.49,7.55,10.47,13.2,19.52,15.24,8.25,1.86,16.3.52,24.07-2.2,29.89,9.47,63.21,9.05,91.26-5.59,17.27-9,32.09-23.65,37.65-42.71a60.4,60.4,0,0,0,2.33-15.08,225.88,225.88,0,0,0,50-12.92C597.09,392.8,594.69,385.59,590.74,386.58ZM410.55,462.76a137.75,137.75,0,0,1-20.64-9c4.5-.86,8.9-1.85,13.11-2.91,1.52-.38,3-.78,4.54-1.19a316.83,316.83,0,0,0,37.9-4.26c-7.33,4.05-14.76,7.91-22.21,11.7A118.53,118.53,0,0,1,410.55,462.76ZM296.88,444.31a40.78,40.78,0,0,1-12-13.32c8.05,1.34,16.15,2.42,24.27,3.31l1,.41a42.4,42.4,0,0,0,15.37,13.91,157.59,157.59,0,0,1-22-.39A46.11,46.11,0,0,1,296.88,444.31Zm-103-37.95a166.69,166.69,0,0,1-31.32-11,77,77,0,0,1-.81-19.1l1.23.88A152.81,152.81,0,0,0,185.27,395c1.37,1.28,2.73,2.59,4.06,3.94a4.09,4.09,0,0,0,4.22,1.21q2.43,1.43,4.91,2.77c-1.27,1-2.56,2-3.9,2.95ZM100.18,295.07a102.51,102.51,0,0,1,7.82-34c13.86-20.32,40.29-30.56,63.58-37.31.06.42.13.83.2,1.24-.27.44-.54.88-.8,1.32a72.56,72.56,0,0,0-25.56,19.91c-24,29.58-21.7,74.22-2.7,105.66.93,1.54,1.9,3,2.89,4.52A182.44,182.44,0,0,1,123.87,338C112.52,326.5,102.67,311.13,100.18,295.07ZM228.26,153.48c19.37-6.75,41-7.1,61.89-5-18.45,7.88-35.88,18.39-50.66,31.69a128.87,128.87,0,0,0-25.3,8.84C214.41,176,219.84,163.3,228.26,153.48Zm260.66,37a45.82,45.82,0,0,1-2.21,8.51c-2.25-.76-4.51-1.43-6.79-2.06a89.85,89.85,0,0,0-19-30.13l-.56-.56a138.61,138.61,0,0,1,26.26.77A49.56,49.56,0,0,1,488.92,190.47Zm67.36,82.67a78.58,78.58,0,0,0-1.58-7.8l1.66-.91a3.73,3.73,0,0,0,.91-5.65c-2.78-3.46-5.69-6.69-8.69-9.75-.67-1.31-1.36-2.6-2.09-3.88,4.4.41,8.8,1,13.17,1.66,2.54.41,5.15.9,7.78,1.48A63.63,63.63,0,0,1,556.28,273.14ZM516,385.44q-4.41.48-8.85.63c1.26-1.5,2.49-3,3.71-4.55,4.66-4.76,9.14-9.73,13.35-14.91.25.37.48.74.72,1.11A104.28,104.28,0,0,1,516,385.44Zm13.51-9.77q1.63,3.3,2.94,6.74-3.45.88-6.95,1.56Q527.66,379.89,529.48,375.67ZM324.15,440c-.16-.11-.3-.23-.45-.34a206.34,206.34,0,0,0,25.72,6.47c-2.89.45-5.78.86-8.66,1.21A51.12,51.12,0,0,1,324.15,440ZM188.48,388.57A228.94,228.94,0,0,0,168.9,373q-3.1-3-6-6.23c.37-2.16.79-4.3,1.29-6.39A98.83,98.83,0,0,1,186,318.1c1.88,2.34,3.82,4.65,5.78,6.92-.65,1.64-1.27,3.3-1.8,5a71.54,71.54,0,0,0-1.83,33.66c-.44,7.09.71,14,4.26,20.11q-1.09,3-2.11,6Zm-23.39-150c-9.4,25.84.36,51.61,16,73.1a105.1,105.1,0,0,0-24.17,47.83c-21.25-27.83-30.33-65.22-12.7-97.75A65.43,65.43,0,0,1,165.09,238.59Zm309.5-36.11q.82,2.55,1.45,5.13l-1.47-.46a40.81,40.81,0,0,0-5.33-5.76C471,201.72,472.82,202.08,474.59,202.48Zm72.23,58.63a244.64,244.64,0,0,1-35.4,15.43,115,115,0,0,0-30.15-21.47c.77-2.12,1.43-4.27,2-6.45,3.62-.72,7.25-1.39,10.9-1.94a222.21,222.21,0,0,1,39.09-2.34,122.92,122.92,0,0,1,10.87,9.77A70,70,0,0,1,546.82,261.11ZM256,413.17h0a65.57,65.57,0,0,1-25.64-5.54c-1.5-2.36-2.87-4.8-4.14-7.29a86.1,86.1,0,0,0,19.8-3.18,113.65,113.65,0,0,0,11.15,4.36q6,5.46,12.54,10.35a64.66,64.66,0,0,1-9.17,1.2C259,413.1,257.49,413.16,256,413.17Zm-58.55-41.9a65.44,65.44,0,0,1-2.53-10.89c1.15-7.58,4.5-15.26,8.59-22.43,1.2,1.26,2.39,2.52,3.6,3.77,0,3.32,0,6.65.12,10Q201.85,361.23,197.44,371.27Zm-1.61-34.17c.45-1.92,1-3.8,1.64-5.64l.91,1c-.49.89-1,1.78-1.47,2.67-.38.73-.75,1.47-1.12,2.21C195.8,337.25,195.82,337.18,195.83,337.1Zm-5.11-24a96.89,96.89,0,0,1,9.34-8.14c.35,1.18.73,2.35,1.13,3.52a76.44,76.44,0,0,0-6.22,9.7C193.53,316.51,192.11,314.81,190.72,313.09ZM168.2,258a57.1,57.1,0,0,1,6.29-23.06,57.08,57.08,0,0,0,3.2,7.09,71.87,71.87,0,0,0,18.41,22,110.45,110.45,0,0,0,1.82,32.53,101.16,101.16,0,0,0-12.13,10.15C175.19,292.29,167.25,276,168.2,258Zm206-69.11a33.72,33.72,0,0,1,.58,5.85c-1.17.28-2.32.57-3.46.86q-2.06-4.53-4.36-8.93C369.33,187.42,371.74,188.15,374.17,188.86Zm96.74,24.44a28.76,28.76,0,0,1,2.64,5.69,89.41,89.41,0,0,1-19.32,14.38,167.29,167.29,0,0,1-16,7.83,261.79,261.79,0,0,0-53.45-3.66c-.23-1-.47-2.09-.71-3.13a54.11,54.11,0,0,0,13.2-11.52,43,43,0,0,0,9.42-21.52q5.61-.88,11.26-1.48C435.7,203.94,453.59,207.91,470.91,213.3ZM441.12,424.5l-27.71,7-.59.16c-11.85-.12-23.71-.3-35.55-.63a95.88,95.88,0,0,1,12.26-17.21,258.12,258.12,0,0,0,51.36-15.68,210.05,210.05,0,0,0,30.63,7.75,280,280,0,0,1-26.15,16.35C444,423,442.54,423.76,441.12,424.5ZM203.67,291a101.94,101.94,0,0,1-1.06-22.22,89.64,89.64,0,0,0,10.87,6,62.91,62.91,0,0,0-4.36,14.87q-2.61,1.38-5.15,2.92C203.87,292.05,203.76,291.53,203.67,291Zm2-64.65a123.58,123.58,0,0,0-8.65,30c-7.68-7-13.91-15.55-17.21-25.24A78.44,78.44,0,0,1,205.69,226.35Zm7.92.24a89.3,89.3,0,0,1,9.74,1.31,86.14,86.14,0,0,0,25,19.15c-.36.15-.7.32-1.06.48-12.69,2.94-24,9.91-31,21.62a83.8,83.8,0,0,1-12-7c-.34-.24-.67-.51-1-.75A115.11,115.11,0,0,1,213.61,226.59Zm168.78.88q-1.92-7.31-4.3-14.45a55.4,55.4,0,0,0,1.81-5.88c7-1.89,14.05-3.51,21.16-4.8C399.28,212.81,391.55,221.22,382.39,227.47ZM512,303.22a59.22,59.22,0,0,0-2.2-10.66,25.5,25.5,0,0,1,7.39,9C515.45,302.14,513.72,302.71,512,303.22ZM357.67,411.5c-.27-.82-.55-1.65-.82-2.48a298.16,298.16,0,0,0,31.43-5c-.2.21-.41.41-.61.63-.85.91-1.7,1.85-2.55,2.8-6.54,1.24-13,2.26-19.41,3.09Q361.71,411.1,357.67,411.5Zm7.75-188.32c-.34-.42-.69-.83-1-1.24,2-2.95,4.05-5.8,6.23-8.57A70.87,70.87,0,0,1,365.42,223.18ZM412.15,304c-.85-1.06-1.74-2.08-2.68-3.06l.27-.12c2.23.09,4.45.11,6.65,0-1.25.93-2.49,1.87-3.75,2.79Zm-2.21,47c-8.69-5.85-17.23-12-25.78-18.19q8.91-5.64,17.61-11.57c4-.11,8-.13,12-.08,2.44,8.18,1.93,17.23-2.16,26.36C411.12,348.73,410.54,349.89,409.94,351ZM304.65,375.09q5.4-2.37,10.76-4.84-1.74,2.87-3.3,5.84Q308.38,375.66,304.65,375.09Zm67-32.69c3.49,12.13,11.3,22.06,20.81,30.08l-1.13.95a221.36,221.36,0,0,1-24.45-30.05c1.46-.86,2.93-1.7,4.38-2.57C371.34,341.34,371.45,341.87,371.6,342.4ZM406,388.31a2.33,2.33,0,0,0-.8-1.68c-2.62-2.27-5.17-4.63-7.68-7a4.39,4.39,0,0,0-.64-1.78c.38-.32.74-.66,1.11-1,2.94,2.14,6,4.12,9,5.94q1.85,1.1,3.72,2.13C409.14,386,407.55,387.15,406,388.31Zm-72.28,6.23c-1.4-3.06-2.68-6.18-3.88-9.32q6.62.38,13.18.45,1.42,5.34,3,10.64a103.08,103.08,0,0,1-10.53,1.95C334.87,397,334.28,395.79,333.71,394.54Zm-56.06-25.76a138.37,138.37,0,0,1-16.48-6.53c2.16-1.3,4.33-2.59,6.51-3.84q9.21-5.25,18.8-9.78l-1,1.93A159.94,159.94,0,0,0,277.65,368.78Zm-3.1,10.06-1.67.64a67.59,67.59,0,0,1-5.16-5.71c-.29-.36-.55-.74-.84-1.11,2.8,1.1,5.64,2.11,8.51,3C275.09,376.75,274.82,377.79,274.55,378.84Zm5.09-92.28a134.51,134.51,0,0,1,15.3,3.78c.91,2.12,1.77,4.27,2.6,6.43-9.55,9.76-19.06,19.57-28.18,29.69a135.14,135.14,0,0,0-13.67,17.42C254.16,323.26,264.5,302.24,279.64,286.56Zm-61.59,40.19c-.17-.66-.34-1.32-.49-2a90.88,90.88,0,0,1,6.83-16.5A286.32,286.32,0,0,1,244.2,286q3.62-.58,7.28-.9c4.16.51,8.33.85,12.47,1.05a218.72,218.72,0,0,0-43.17,44.38Q219.37,328.68,218.05,326.75Zm1.2-24.49c.17-.71.33-1.41.51-2.11l1.43-1.22c-.66,1.09-1.31,2.19-1.93,3.31Zm166.44-25.92c-6-3.53-11.86-7.21-17.62-11,4.52-.41,9-.95,13.51-1.59q1.89,5.35,3.26,10.88A3.78,3.78,0,0,0,385.69,276.34Zm-27.49-17.5-2.37-1.6-6.08-4.13.72-.78c5.65-1.34,11.36-2.48,17.16-3.35q3.54-.54,7.09-.95,2.28,4.35,4.2,8.88C372,257.82,365.07,258.45,358.2,258.84Zm-5.84,135.74q-1.29-4.43-2.49-8.88c1.4,0,2.81,0,4.2-.05,6.86-.12,13.71-.4,20.56-.75-1.12.63-2.24,1.25-3.36,1.85A108.82,108.82,0,0,1,352.36,394.58Zm35.39-18.34c-13.09.82-26.49,1.55-39.91,1.63-1.75-7.08-3.3-14.21-4.58-21.37q10-5.28,19.89-11Q365,348.31,367,351a220.47,220.47,0,0,0,21.08,25Zm-45.87-28.18c0-.26-.08-.52-.11-.78a179.91,179.91,0,0,1,14-13.26c.94,1.58,1.91,3.14,2.89,4.69Q350.36,343.53,341.88,348.06Zm.66-10.74-1.83,1.81c-.37-3.19-.67-6.39-.91-9.58,4-1,7.94-1.87,11.94-2.68.25.46.49.92.75,1.38Q347.36,332.63,342.54,337.32ZM289,278.06c.24.45.49.88.72,1.32l-2.47.1C287.8,279,288.39,278.53,289,278.06Zm5.38-3.5c5-2.86,10.12-5.55,15.35-8,3.15,1.44,6.28,2.93,9.4,4.41-.11,1.41-.25,2.8-.44,4.18l-.19.2c-.89.93-1.8,1.85-2.7,2.78-6.27.26-12.63.62-19,.94C296,277.55,295.18,276.05,294.36,274.56Zm-3.67-6.23c-1-1.56-2-3.11-3-4.62,1.88-.65,3.77-1.28,5.65-1.9,2,.38,4,.74,5.94,1.06C296.35,264.59,293.48,266.41,290.69,268.33Zm-9.3-2.38c1.34,1.86,2.6,3.75,3.81,5.67-3.53,2.12-7,4.35-10.4,6.66a120.68,120.68,0,0,0-20.17-.81A261.08,261.08,0,0,1,281.39,266Zm-9.26-4.84c1.13-.88,2.24-1.77,3.38-2.63.28.32.55.65.83,1C274.93,260,273.53,260.55,272.13,261.11Zm36.81,24-1.53,1.56c-1.17-.45-2.34-.89-3.52-1.31Zm19.35-9.85,3.29,1.52c.08.31.15.62.24.93h-.73c-1.75,0-3.51,0-5.27.06Zm3.78-16.1c-.1-.5-.19-1-.29-1.52,2.06-.69,4.13-1.37,6.22-2l-3.56,3.6ZM308.7,295.31c1.43.58,2.84,1.19,4.24,1.81-1.36,3.6-2.89,7.14-4.53,10.64q-1.47-4.54-3.11-9Zm5.63-5.76.57-.59,1.14-1.17c-.21.75-.43,1.49-.65,2.22Zm9.66-5c2.8-.08,5.59-.13,8.39-.13h1.38c.15.5.32,1,.48,1.5q-.83,6.43-1.22,12.91-5.53-3.07-11.23-5.85C322.63,290.21,323.38,287.39,324,284.55Zm15.5,16.19c.31.79.61,1.57.92,2.35l-1-.61C339.42,301.9,339.46,301.32,339.49,300.74Zm6.1,14.1c.81,1.71,1.65,3.4,2.5,5.08q-4.39.91-8.75,2-.24-5.5-.18-11Q342.4,312.81,345.59,314.84Zm21.8,1.76c-1.67.23-3.34.47-5,.73q-7.62-5.28-15.43-10.23c-2.23-5.15-4.29-10.38-6.13-15.69-.14-.4-.27-.81-.41-1.22.22-1.88.46-3.77.74-5.66,4,.12,7.94.34,11.93.72l2.22.7a160.19,160.19,0,0,0,25.25,9.84,66.27,66.27,0,0,0-8.39,17.51C370.55,314.38,369,315.48,367.39,316.6Zm-30.74-49.78.37-.38.78,0c-.07.3-.15.59-.22.9Zm-68.71,71.86c9.81-12.25,21-23.55,32.19-34.75,1.41,4.12,2.72,8.31,3.94,12.54-3.71,7.09-7.73,14.07-11.61,21.06a285.66,285.66,0,0,0-34.6,17.86c-.08-.27-.18-.54-.26-.8A88.39,88.39,0,0,1,267.94,338.68Zm38.8-12.56q.69,2.6,1.35,5.2c-1.81.66-3.61,1.33-5.41,2C304,330.94,305.4,328.54,306.74,326.12Zm4.63-8.58c2.4-4.63,4.67-9.31,6.67-14.11q.68-1.65,1.32-3.33,6.45,3.12,12.7,6.63c.2.12.4.24.61.35-.13,5.47-.06,11,.2,16.44q-9.31,2.48-18.45,5.57C313.47,325.23,312.45,321.37,311.37,317.54Zm22,13.69c.36,4.66.86,9.3,1.47,13.94-3.52,3.75-6.94,7.66-10.15,11.73-1.06.53-2.12,1-3.18,1.55-1.89-7.29-3.59-14.63-5.31-21.94Q324.69,333.6,333.37,331.23Zm-5.79,33.21q4.8-2.34,9.55-4.78,1.68,9.15,3.88,18.18c-4.67-.06-9.34-.2-14-.47-.91-2.74-1.78-5.51-2.59-8.29C325.45,367.52,326.49,366,327.58,364.44Zm34.84-27.87c-1.11-1.77-2.19-3.54-3.25-5.34q2.46-2,5-3.92,2.82,2,5.63,4c0,.27.05.55.07.83C367.38,333.63,364.91,335.11,362.42,336.57Zm14.3-9.1a45.89,45.89,0,0,1,.5-4.57c2.46-.26,4.92-.5,7.38-.7l1.21-.09q-4.37,2.83-8.77,5.59Zm6-20.82a62.07,62.07,0,0,1,5.57-8.84c2.58.6,5.18,1.12,7.78,1.56Q389.25,302.77,382.69,306.65ZM388,286.44l-2-.34a121.76,121.76,0,0,0-26.46-6.51C354.11,277,348.87,274,343.68,271c.34-1.48.7-3,1.08-4.46q5.83,0,11.67-.3c10.41,7,20.93,13.76,31.8,20Zm-.43-9c1.81.37,3.74-.84,3.4-3.54q-.7-5.65-1.55-11.35a268.42,268.42,0,0,0,40.95-10.45c2.18-.74,4.38-1.54,6.58-2.4,3,.5,6,1.08,9,1.73-.67.25-1.36.48-2,.74-17.65,6.84-36,15.78-50.27,28.71C391.57,279.75,389.54,278.61,387.54,277.44Zm.74-21.9q-.7-4.29-1.52-8.57a212.59,212.59,0,0,1,34.41.64A233.08,233.08,0,0,1,388.28,255.54Zm-64.84-10.12c-.19-.65-.41-1.3-.61-1.94l2.34,1.55Zm-62.67,8.14a249,249,0,0,0-20.07,19.72c-.95,1.05-1.9,2.12-2.84,3.19q-3.88-.84-7.69-2c5.67-9,13.23-16.16,22.91-20.22A61.22,61.22,0,0,1,260.77,253.56Zm-29.93,27.55c-1.7.45-3.39,1-5.07,1.5.41-.88.84-1.75,1.28-2.61C228.3,280.39,229.57,280.76,230.84,281.11Zm31,16.31c-10.74,16.93-15,36.81-10.95,55.18-.51,1.09-1,2.2-1.41,3.31-3.22-2-6.38-4.09-9.48-6.41a100.15,100.15,0,0,1-14.17-12.91A217.11,217.11,0,0,1,261.83,297.42Zm-8.7,81.88a32.08,32.08,0,0,1,.09-12l.71-.48c.84.43,1.69.84,2.53,1.26A63.74,63.74,0,0,0,266.28,382c-2.39.91-5,1.89-7.72,2.87Zm30.92-8.58A193,193,0,0,1,296.69,344q6.57-2.81,13.26-5.29c1.87,7.54,3.7,15.1,5.68,22.55q-12.36,5.85-25,11.12C288.44,371.88,286.24,371.33,284.05,370.72Zm38.82,14c1.77,4.8,3.71,9.53,5.89,14.14a85.92,85.92,0,0,1-17.66-.74,76.3,76.3,0,0,1,4.87-14C318.27,384.35,320.57,384.56,322.87,384.75Zm42.14,14a279.11,279.11,0,0,0,30.67-15.3l0,0c2.41,2.25,4.86,4.47,7.37,6.62a3.31,3.31,0,0,0,.35.25q-2,1.56-3.94,3.19a299.43,299.43,0,0,1-40.23,7.59C361.18,400.3,363.1,399.54,365,398.73Zm52.91-18.4a124.63,124.63,0,0,1-14.6-8.56,82,82,0,0,0,8.79-10.6c6.41,4.17,12.93,8.15,19.62,11.81-2.1,1-4.18,2-6.23,3.06C422.93,377.39,420.41,378.84,417.92,380.33Zm-20.27-12.76c-10.34-8.3-18.06-18.41-20.32-30.48l.26-.16c9.48,6.86,18.94,13.77,28.61,20.31A75.28,75.28,0,0,1,397.65,367.57Zm.2-53.49q-7.77.23-15.51.87a221.81,221.81,0,0,1,20.57-11.06,45.78,45.78,0,0,1,3.75,4C403.74,310,400.8,312.06,397.85,314.08Zm61.73-28.35a104.79,104.79,0,0,1,24.26-1.46,250.07,250.07,0,0,1-28.31,4.52C456.91,287.84,458.25,286.81,459.58,285.73Zm-15-7.08c-1.73,1.46-3.48,2.89-5.22,4.33a214.14,214.14,0,0,0-21.18,6.78c-1.63-.09-3.26-.14-4.89-.26-1.21-.08-2.41-.18-3.61-.28q-4.44-2.13-8.81-4.42c9-7.47,19.4-13.42,29.65-18.42a217.5,217.5,0,0,1,28.59-11.46q3.3,1.05,6.51,2.31C459.77,265.36,452.09,272.27,444.54,278.65Zm-79.47-42.19-1.26.47c.77-1,1.53-2,2.29-3l1.14,1.61C366.51,235.89,365.78,236.18,365.07,236.46Zm-8.54-1.13q2.12-4.11,4.48-8l.86,1.08C360.16,230.74,358.37,233.06,356.53,235.33Zm2.83-19c-.67-.7-1.36-1.37-2-2.06q2.31-.83,4.63-1.62Q360.62,214.45,359.36,216.31ZM356,221.53a135.74,135.74,0,0,0-7.94,15c-.7,1.55-1.38,3.1-2,4.67q-5.55.85-11,1.88-2.77-1.87-5.56-3.74a120,120,0,0,1-.21-13.39h0c7.05-3.32,14.37-6.45,21.87-9.33Q353.59,219,356,221.53Zm-31,14.85q-3.63-2.4-7.27-4.74,3.6-1.89,7.25-3.67C324.9,230.79,324.91,233.61,325,236.38Zm-11.79.85a49.84,49.84,0,0,1,3.84,9.67q-6,1.44-12,3.1c-2.61-1.08-5.26-2.09-8-3-1.24-.4-2.48-.77-3.74-1.13q8.4-5.46,17.15-10.37ZM226.09,349c-.54-1.15-1.06-2.32-1.57-3.5a114.57,114.57,0,0,0,22,17.16c-.84.57-1.7,1.12-2.54,1.7-1.07.73-2.12,1.49-3.17,2.24q-6.17-6.33-12.29-12.7C227.66,352.29,226.85,350.66,226.09,349Zm45,48.73q-3.24-3.35-6.5-6.68c2.79-1,5.46-2,8-3a86.47,86.47,0,0,0-1.06,9.75Zm8.76-12.44c4.2-1.62,8.39-3.27,12.55-5,5.4,1.19,10.86,2.14,16.35,2.9a83.09,83.09,0,0,0-4.06,12.07c-.13.51-.25,1-.36,1.55a67.3,67.3,0,0,1-24.5-11.39A.68.68,0,0,0,279.84,385.29ZM403,400.5q12.26-3.27,24.2-7.57c1.31.56,2.62,1.1,3.94,1.63a245.26,245.26,0,0,1-32.75,10.1Q400.6,402.53,403,400.5Zm23.39-16.23a140.61,140.61,0,0,1,14.14-6.74l2.21,1.06q-7.54,3.29-15.27,6.14Zm23.9-10.34q3.36-1.11,6.77-2c-1.79.9-3.59,1.79-5.4,2.65Zm-9.78-4.66a264.83,264.83,0,0,1-23.18-13.41l-1.38-.9c5.41-10.07,7.74-21.26,4.9-33.13,0-.15-.08-.29-.12-.44,26.93,1.08,54.74,6.45,76.87,20.14A85.11,85.11,0,0,1,492,351q-6.88,4.86-14.06,9.28A144.89,144.89,0,0,0,440.47,369.27Zm-22.18-55c-.51-1.19-1.07-2.33-1.66-3.45q4.64-3.37,9.21-6.85c25.48,9.31,53.54,13.92,79.78,8.61a72,72,0,0,1-5.32,22.94C476.22,321,446,315.5,418.29,314.24Zm76.38-7.57c-21.44,2.4-42.13-1.05-61.92-7.88q2.82-.66,5.56-1.54a257.83,257.83,0,0,0,62.43-9.57l.65.23a51.29,51.29,0,0,1,4.15,16.93A101.87,101.87,0,0,1,494.67,306.67Zm-14.82-29.09c-4.05-.06-8.14.1-12.23.44a70.82,70.82,0,0,0,10.2-15c2.18,1.26,4.31,2.61,6.36,4.08A52.69,52.69,0,0,1,496.9,279.9,70.63,70.63,0,0,0,479.85,277.58ZM473,243.1q-6.43,1.54-12.77,3.46c-3.25-1-6.55-2-9.86-2.8a113.48,113.48,0,0,0,24.84-16.53A41.68,41.68,0,0,1,473,243.1Zm-100.16-10c-1-1.45-2-2.87-3-4.28,1.62-2.41,3.14-4.91,4.52-7.47q1.41,4.74,2.63,9.55C375.58,231.63,374.19,232.36,372.8,233.05Zm-115,11a117.85,117.85,0,0,1-13.18-7,85.58,85.58,0,0,1-7.9-5.54,86.8,86.8,0,0,1,22.91,12.17C259,243.79,258.4,243.94,257.79,244.08Zm-49.62,55.29c0,.33,0,.66,0,1-.62.64-1.23,1.28-1.83,1.94-.14-.49-.29-1-.43-1.48C206.63,300.33,207.4,299.84,208.17,299.37Zm7.48,52.87.63-1.09q3.43,3.5,6.84,7a147.17,147.17,0,0,0,9,14.86c-1.43,1.1-2.84,2.23-4.24,3.36a47,47,0,0,1-8.21-11.92A48.42,48.42,0,0,1,215.65,352.24Zm20.89,26.94q3.6,4.72,7.55,9.19a66.44,66.44,0,0,1-10.57-6.81C234.53,380.76,235.53,380,236.54,379.18Zm-1,12.3a67.44,67.44,0,0,1-12.77,1.23c-.21-.51-.43-1-.63-1.54,2-1.75,3.95-3.46,6-5.15A69.1,69.1,0,0,0,235.49,391.48Zm42.66,7.65q.14-3.25.51-6.48a75.66,75.66,0,0,0,17.77,9c-4.19-.43-8.38-.92-12.55-1.54C282,399.79,280.08,399.47,278.15,399.13Zm52.7,11.45c1.34,0,2.68-.07,4-.11.48.82,1,1.63,1.49,2.44q-7.25.21-14.47,0Q326.39,411.81,330.85,410.58Zm11.45-.42c2.62-.14,5.24-.3,7.87-.52.26.83.52,1.66.79,2.49q-3.52.27-7.06.47C343.36,411.8,342.82,411,342.3,410.16Zm11,8.86c.21.63.42,1.27.64,1.9,1.53,4.43,7.3,1.78,6.05-2.52q7.65-.78,15.25-2c1-.15,1.95-.31,2.92-.48a70.85,70.85,0,0,0-8.73,14.88q-5.43-.19-10.87-.43a127.74,127.74,0,0,1-9.74-11.06C350.31,419.23,351.81,419.14,353.3,419Zm19.94,22.49a32.78,32.78,0,0,1,.94-3.38q6.13.15,12.25.26C382.07,439.46,377.67,440.51,373.24,441.51Zm86.07-46.28c-2.5-.61-5.12-1.3-7.83-2.07,3.91-2,7.73-4.11,11.43-6.39a134.14,134.14,0,0,0,26,5.75q-4.11,3.45-8.34,6.72C473.43,398.24,466.33,396.93,459.31,395.23Zm-17.71-5.12-3.71-1.29c4.75-1.93,9.46-3.94,14.1-6.11.77.32,1.53.64,2.3.94C450.18,386,445.94,388.11,441.6,390.11Zm19.46-11.83q4.31-2.19,8.53-4.54-3.51,2.61-7.2,5ZM506.3,339.4l-.08-.06A75.39,75.39,0,0,0,512.36,311c2.35-.65,4.69-1.36,7-2.18a27.3,27.3,0,0,1-.57,10C516.85,326.92,512.12,333.63,506.3,339.4ZM296.61,227.12A264,264,0,0,0,274,242.74c-1.58-.07-3.16-.07-4.74,0a104.09,104.09,0,0,0-18.36-12.92,90.27,90.27,0,0,0-25.36-9.32,55.79,55.79,0,0,1-4.7-6.82v0a232,232,0,0,1,47.46-.85A272.76,272.76,0,0,1,296.61,227.12Zm-70.18-21.6q1.73-2.29,3.56-4.5c5.09.91,10.16,2.1,15.2,3.51Q235.8,204.67,226.43,205.52Zm-9.39.22a48.91,48.91,0,0,1-1.62-5.28c-.11-.44-.18-.88-.27-1.32,2.07.16,4.13.34,6.2.59Q219.12,202.67,217,205.74Zm-5.67,9.14c-.12.23-.26.45-.38.67-.55,1-1.09,2-1.61,3a87.31,87.31,0,0,0-26.18,3.22c.42-.51.87-1,1.3-1.5C193.31,218.09,202.29,216.26,211.37,214.88Zm-6.74,102.24c.44,1,.89,1.92,1.37,2.87q-2,3-3.92,6.12l-1.62-1.76A67.41,67.41,0,0,1,204.63,317.12Zm17.88,63.61c-1,.81-1.95,1.62-2.9,2.45l-.18.15q-1.41-4.77-2.44-9.7A55.28,55.28,0,0,0,222.51,380.73Zm61.9,27.13c4.79.71,9.58,1.26,14.3,1.68-1.5.24-3,.47-4.52.69A96.62,96.62,0,0,1,284.41,407.86Zm32.38,11.75c8,.38,16.09.4,24.13.11l.4.57c2.44,3.33,5.05,6.54,7.79,9.62C337,429.26,325,428.37,313,427.13a33.6,33.6,0,0,1-2.64-7.91Q313.58,419.46,316.79,419.61Zm39.7,18c1,.93,1.95,1.84,2.94,2.74Q350,439,340.76,436.88C346,437.17,351.25,437.4,356.49,437.6Zm139.94-51.67q-3.35-.21-6.68-.61a126.62,126.62,0,0,1-18.8-3.86,131.87,131.87,0,0,0,12.53-10c1.52-1.39,3-2.85,4.45-4.36a133.34,133.34,0,0,1,23.61,1.18q-4.6,6.51-9.75,12.61C500,382.59,498.24,384.27,496.43,385.93Zm22.4-23.76a3.78,3.78,0,0,0-.82-.28,136.81,136.81,0,0,0-23.59-2.37c.5-.65,1-1.3,1.48-2a120.61,120.61,0,0,0,11.53-9.06,88,88,0,0,1,9.17,8.55c1.13,1.23,2.22,2.51,3.28,3.81C519.54,361.3,519.18,361.73,518.83,362.17Zm-6.63-18.3c7.93-8.39,13.57-18.3,13.91-30.29,0-.57,0-1.12,0-1.68a75.25,75.25,0,0,1,4.23,34.23c-2,3.16-4.13,6.26-6.35,9.31A90,90,0,0,0,512.2,343.87Zm-4.89-106.35a225,225,0,0,0-22.37,3,83.23,83.23,0,0,0,.26-22.41,186.25,186.25,0,0,1,37.43,18.52C517.24,236.82,512.09,237.13,507.31,237.52Zm-47.48-34.67q-7.81-2.11-15.74-4,3.71.1,7.38.36A45,45,0,0,1,459.83,202.85Zm-62.12-15c.49-.34,1-.66,1.48-1,.23.49.43,1,.63,1.52Zm-9.09-2.37q-4.85-1.32-9.65-2.73a38.19,38.19,0,0,0-6-10.89c8.44.1,16.74,3,22.18,9C393,182.26,390.77,183.81,388.62,185.44Zm-22.22-12a33.24,33.24,0,0,1,4.77,6.83q-5-1.6-9.89-3.39-.87-1.38-1.77-2.73a35.06,35.06,0,0,1,6-1.68C365.78,172.82,366.1,173.12,366.4,173.46Zm-10.56-4.53q-2.8-3.81-5.93-7.43a58.28,58.28,0,0,1,9.88,6C358.43,167.9,357.11,168.39,355.84,168.93ZM336.9,156.8a114.63,114.63,0,0,1,13.44,15l-.83.5c-1.13-.48-2.24-1-3.36-1.47-8-3.6-18.86-9.62-24.59-17.79,4.94.93,10,2,15,3.5Zm21.41,26.89a142.88,142.88,0,0,1,7,13.5q-10.14,2.82-20,6.41-4.56-3.57-9.42-6.7a48.11,48.11,0,0,1,13.42-16.76C352.27,181.4,355.28,182.58,358.31,183.69ZM338.6,206.15c-2.37.94-4.74,1.9-7.08,2.91a63,63,0,0,1,2-6.44Q336.08,204.32,338.6,206.15Zm-11.88,5q-9.54,4.31-18.74,9.34c-10-8.65-23.2-13.29-37.29-14.83a191.92,191.92,0,0,0-34.55-11.59q3.47-3.63,7.18-7c25.49-5.65,52.89-3.06,76.56,8q4.92,2.31,9.59,5.08A84.63,84.63,0,0,0,326.72,211.15Zm-99.32-18.8-1.14-.19,2-.73Zm-16.32,15c-5.38.78-10.72,1.72-16,2.78a108.66,108.66,0,0,1,14.11-9.76A54.59,54.59,0,0,0,211.08,207.33ZM201.6,381.18l-.14-.28q3.18-7.81,6.92-15.32a128.59,128.59,0,0,0,5.13,23.26L211.35,391a24.55,24.55,0,0,1-5.15-2.44A56.66,56.66,0,0,1,201.6,381.18Zm95.69,36.53q3.21.53,6.44.88a46.66,46.66,0,0,0,1.64,6.33q-6.56-3-12.86-6.52C294.1,418.19,295.7,418,297.29,417.71Zm203.37-24.35q5,.13,10-.12-3.08,4.13-6.48,8c-3.55-.11-7.11-.3-10.66-.58C495.94,398.3,498.34,395.87,500.66,393.36Zm36.88-59.85a81.61,81.61,0,0,0-7-29.49l.58-.28a87.79,87.79,0,0,0,19.17-13.3,98.1,98.1,0,0,1-5.59,26.49A138.74,138.74,0,0,1,537.54,333.51ZM527.2,297.3q-.76-1.37-1.59-2.73a96.72,96.72,0,0,0-8.71-12,245.41,245.41,0,0,0,31.91-14,76.49,76.49,0,0,1,1.58,11.67A81,81,0,0,1,527.2,297.3Zm-38.91-85.47c.92-1.49,1.77-3,2.55-4.58,15.05,5.65,28.95,14.49,39.7,26.37C517.55,224.33,503.28,217.4,488.29,211.83Zm-5.24-5c-.2-.79-.39-1.58-.62-2.36.55.16,1.09.34,1.63.51C483.74,205.58,483.41,206.2,483.05,206.81Zm-18.53-24.6a72.11,72.11,0,0,1,7.2,12.72c-4.13-.86-8.29-1.53-12.45-2-1.6-.17-3.21-.32-4.81-.45a54.64,54.64,0,0,0-6.92-2.16c-13.29-3.21-27.61-3.17-41.76-1.49a29.58,29.58,0,0,0-2-5,122.68,122.68,0,0,1,39.84-15.46q3.69-.74,7.52-1.25A95.39,95.39,0,0,1,464.52,182.21Zm-64.71-4.37c-7.8-9.14-20.68-13.69-32.56-12.14-7.52-6.66-17.34-11.35-27.61-14.73a109.09,109.09,0,0,0-9.28-7.44l1.35-.31c37.89-8.38,81.05-5.31,112.16,17.9A131.46,131.46,0,0,0,399.81,177.84Zm-75.93-31.1c-1.15-.25-2.29-.49-3.42-.71l1.59-.44C322.67,146,323.27,146.35,323.88,146.74Zm-10.59,4.81c4.15,9.25,13,16.52,21.71,21.5,2.64,1.52,5.36,2.93,8.13,4.27a51.19,51.19,0,0,0-11.46,17,124.25,124.25,0,0,0-76.86-16.79,190.8,190.8,0,0,1,51.48-27C308.64,150.81,311,151.17,313.29,151.55ZM180.6,213.35c-1.11.27-2.21.54-3.32.83a51.33,51.33,0,0,1,2-12.62,114.41,114.41,0,0,1,17.53-2.51A97.58,97.58,0,0,0,180.6,213.35Zm16.13,180.41c.35-1.06.69-2.14,1.06-3.19.62.59,1.27,1.17,2,1.73l.61.46c1.27,1.73,2.62,3.39,4,5l-.21.2Q200.4,395.93,196.73,393.76Zm77,26.5c.06.25.11.5.18.75s.09.3.13.45c-1.59-.31-3.17-.63-4.76-1C270.8,420.42,272.28,420.35,273.76,420.26Zm6.55-.53.68-.05q3.45,2.19,7,4.23-3.36-.54-6.73-1.12C280.91,421.78,280.59,420.77,280.31,419.73Zm187.37,12.4Q459.34,432,451,432c1.28-.71,2.55-1.42,3.82-2.16l25.41-6.51C476.15,426.4,472,429.34,467.68,432.13Zm8.41-16.49q4.88-3.72,9.5-7.73,5.67.63,11.33,1c-.68.66-1.37,1.33-2.06,2Zm60.35-15.72a220.65,220.65,0,0,1-22.4,1.44q3.42-4.35,6.47-9a127.32,127.32,0,0,0,14.2-2.69A61.89,61.89,0,0,1,536.44,399.92Zm77.34-117.19c5.7,19.95-3.88,41.3-15.83,57-12.51,16.41-29.69,29.09-48.67,37.05-3.44,1.45-7,2.73-10.52,3.86a82.33,82.33,0,0,0-6.17-13.05A97.16,97.16,0,0,0,536.9,349c11.66-18.41,19.43-38.73,20.24-60.3.07-1.78.07-3.54,0-5.29a76.84,76.84,0,0,0,14.3-23.84,60.8,60.8,0,0,0,2.62-9.6C591.55,254.94,608.59,264.54,613.78,282.73Zm-51.63-70.19a52.13,52.13,0,0,1,6.29,27.79,164.08,164.08,0,0,0-27.4-3.51C529.35,221,512.32,209,493.33,201.42a52.62,52.62,0,0,0,2-27.59c-.36-2-.81-3.85-1.31-5.71C522.12,173.22,548.58,187.4,562.15,212.54Zm-188.6-98c36.35-1.58,78.06,1.86,102.25,32.73a70,70,0,0,1,7.74,12.32,137.3,137.3,0,0,0-30.2.08c-34.23-29.4-82.29-33.66-125.44-23.58-2.19.51-4.38,1.07-6.56,1.65-.95-.54-1.9-1.06-2.85-1.57.05-.18.09-.36.15-.54C325.68,114.47,355.69,115.34,373.55,114.56Zm-62.61,25.23c0,.33-.05.66-.05,1-2.44.77-4.86,1.58-7.29,2.44-20.75-3-42.78-4.42-63.41-.4C261,128.6,288,129.64,310.94,139.79ZM202,168.22a80.36,80.36,0,0,1,14.6-9.71,62.26,62.26,0,0,0-8.48,31.93,121.34,121.34,0,0,0-25.35,2A74.28,74.28,0,0,1,202,168.22ZM172.25,203.4A58.76,58.76,0,0,0,171,215.88c-17.25,4.84-34.23,11.46-48.87,21.4q2.84-3.56,6-6.89A100,100,0,0,1,172.25,203.4ZM117,357.27a101.66,101.66,0,0,1-15-36.86,111.51,111.51,0,0,0,21.9,27.2c9.64,8.88,20.39,16.37,31.11,23.89a93.54,93.54,0,0,0-.47,19.72C139.61,382.94,126.63,371.88,117,357.27Zm49.19,47.52a175.17,175.17,0,0,0,16.73,6C176.3,411.93,170,410.16,166.14,404.79Zm39.31,1.79c2.53,1.25,5.08,2.46,7.66,3.61q-5-.75-9.87-1.73C204,407.84,204.73,407.21,205.45,406.58Zm46.79,23.88a77.36,77.36,0,0,1-11.71-9.92q4.84,1.53,9.71,2.87c8.87,2.46,17.83,4.5,26.84,6.2a50.07,50.07,0,0,0,12.24,16.51A101,101,0,0,1,252.24,430.46Zm124.15,27.73a17.24,17.24,0,0,1-1.33-2l2.17-.48c.73-.09,1.46-.17,2.18-.27,2.33,1.46,4.7,2.87,7.11,4.2,4.09,2.25,8.32,4.31,12.65,6.16C390.58,467.11,382.2,465.68,376.39,458.19Zm117.93,2.87c-22.68,10-48.05,10.92-71.95,5.14,4.4-2.13,8.69-4.45,12.83-6.62,11.23-5.87,22.57-12.06,33.43-19,1.35-.32,2.69-.65,4-1a3.22,3.22,0,0,0,2.67-3.4,200.26,200.26,0,0,0,22.4-17.45q19.37-5,38.72-10a53.6,53.6,0,0,1-.71,5.62C531.63,436.36,514,452.38,494.32,461.06Z" />
            <path
                d="M709.68,315.69a208.74,208.74,0,0,0-10-90.89c-10.59-30.34-29.08-57.52-51-80.76-22.67-24-48.9-44.29-76.48-62.3a543.53,543.53,0,0,0-97.82-51C352.79-17.14,205.13-13.39,101,72.72,51.53,113.64,14.51,171.27,3.54,235c-9.69,56.29.51,116.63,30.58,165.45A211.77,211.77,0,0,0,58,432l0,0c.69-.83,1.38-1.66,2-2.52a7.48,7.48,0,0,1,1.83-1.67C25.24,386,6.56,330.32,7.53,274.88,8.61,212.5,35.47,153.11,77.67,107.69,165.47,13.2,303.49-8.58,424.16,24.29c66.64,18.15,130.38,51.79,184,95.2,48.51,39.25,87.19,90.79,92.63,154.68,11.13,130.75-98.35,233.45-213.39,272.51-59.1,20.07-122.89,25.76-184.82,17.62q-4.11,2.66-8.24,5.25c54.64,9.58,110.45,9.29,161.8-3.09C577,537.33,695.62,446.49,709.68,315.69Z" />
            <path
                d="M280.93,555.34c-34.68,22.17-68.16,46.63-101.72,70.55q1.39-23,2.8-46.07c1.21-19.85,3.72-40.39,2.57-60.25-.17-3-5.06-6-6-1.78-.06.23-.09.48-.14.71a6.86,6.86,0,0,0-1.53-1.18c-9-4.89-19.17-7.45-28.46-11.74a196.65,196.65,0,0,1-25.43-14.13,203,203,0,0,1-44.89-39.84c-1.65-2-3.79.37-2.56,2.31,11.72,18.57,25.73,34.61,43.31,47.86,15.3,11.52,36.61,25.36,56.13,26.81a6.44,6.44,0,0,0,1.61-.08c-2.44,15.69-3.18,31.93-4.63,47.57L166.26,638a6.59,6.59,0,0,0,10.17,6.18c37.42-25.18,75.77-49.72,112-76.63C294.08,563.32,287.18,551.35,280.93,555.34Z" />
        </g>
    </g>
</svg>